# xmcd
#
# Track frame offsets:
#	150
#	10648
#	20915
#	32887
#	44929
#	56863
#	68301
#	79737
#	92648
#	103060
#	112845
#	126571
#	140344
#	154416
#	166693
#	181569
#	195460
#	206410
#
# Disc length: 2941 seconds
#
# Revision: 0
# Processed by: cddbd v1.5.1PL2 Copyright (c) Steve Scherf et al.
# Submitted via: EasyCDDAExtractor 9.0.0.1
#
DISCID=ef0b7b12
DTITLE=Loretta Lynn - Gold - Loretta Lynn [CD2]
DYEAR=1900
DGENRE=
TTITLE0=You're Looking At Country
TTITLE1=I Wanna Be Free
TTITLE2=One's On The Way
TTITLE3=Rated "X"
TTITLE4=The Pill
TTITLE5=Love Is The Foundation
TTITLE6=Louisiana Woman, Mississippi Man
TTITLE7=Hey Loretta
TTITLE8=They Don't Make 'Em Like My Daddy Anymore
TTITLE9=Trouble In Paradise
TTITLE10=When The Tingle Becomes A Chill
TTITLE11=Somebody Somewhere (Don't Know What He's Missing Tonight)
TTITLE12=She's Got You
TTITLE13=Out Of My Head And Back In My Bed
TTITLE14=I Can't Feel You Anymore
TTITLE15=I Lie
TTITLE16=Silver Threads And Golden Needles
TTITLE17=Country In My Genes
EXTD=
EXTT0=
EXTT1=
EXTT2=
EXTT3=
EXTT4=
EXTT5=
EXTT6=
EXTT7=
EXTT8=
EXTT9=
EXTT10=
EXTT11=
EXTT12=
EXTT13=
EXTT14=
EXTT15=
EXTT16=
EXTT17=
PLAYORDER=
